<svg xmlns="http://www.w3.org/2000/svg" xmlns:xlink="http://www.w3.org/1999/xlink" width="400" zoomAndPan="magnify" viewBox="0 0 300 225" height="300" preserveAspectRatio="xMidYMid meet" version="1.0"><defs><g/></defs><g fill="#ffffff" fill-opacity="1"><g transform="translate(11.252929, 100.37504)"><g><path d="M 4.34375 7 L 4.34375 3.15625 L 13.796875 3.15625 C 14.441406 3.15625 14.765625 2.800781 14.765625 2.09375 L 14.765625 -2.28125 L 14.140625 -2.28125 C 13.953125 -1.882812 13.660156 -1.484375 13.265625 -1.078125 C 12.867188 -0.679688 12.332031 -0.351562 11.65625 -0.09375 C 10.976562 0.15625 10.113281 0.28125 9.0625 0.28125 C 7.707031 0.28125 6.519531 -0.0234375 5.5 -0.640625 C 4.488281 -1.265625 3.703125 -2.125 3.140625 -3.21875 C 2.585938 -4.3125 2.3125 -5.570312 2.3125 -7 L 2.3125 -17.359375 L 6.71875 -17.359375 L 6.71875 -7.34375 C 6.71875 -6.039062 7.035156 -5.0625 7.671875 -4.40625 C 8.316406 -3.757812 9.238281 -3.4375 10.4375 -3.4375 C 11.78125 -3.4375 12.828125 -3.882812 13.578125 -4.78125 C 14.328125 -5.675781 14.703125 -6.929688 14.703125 -8.546875 L 14.703125 -17.359375 L 19.109375 -17.359375 L 19.109375 3.078125 C 19.109375 4.265625 18.757812 5.210938 18.0625 5.921875 C 17.363281 6.640625 16.429688 7 15.265625 7 Z M 4.34375 7 "/></g></g></g><g fill="#ffffff" fill-opacity="1"><g transform="translate(32.808058, 100.37504)"><g><path d="M 10.703125 0.484375 C 8.984375 0.484375 7.429688 0.132812 6.046875 -0.5625 C 4.671875 -1.257812 3.585938 -2.269531 2.796875 -3.59375 C 2.003906 -4.925781 1.609375 -6.53125 1.609375 -8.40625 L 1.609375 -8.953125 C 1.609375 -10.828125 2.003906 -12.425781 2.796875 -13.75 C 3.585938 -15.082031 4.671875 -16.097656 6.046875 -16.796875 C 7.429688 -17.492188 8.984375 -17.84375 10.703125 -17.84375 C 12.429688 -17.84375 13.984375 -17.492188 15.359375 -16.796875 C 16.742188 -16.097656 17.832031 -15.082031 18.625 -13.75 C 19.414062 -12.425781 19.8125 -10.828125 19.8125 -8.953125 L 19.8125 -8.40625 C 19.8125 -6.53125 19.414062 -4.925781 18.625 -3.59375 C 17.832031 -2.269531 16.742188 -1.257812 15.359375 -0.5625 C 13.984375 0.132812 12.429688 0.484375 10.703125 0.484375 Z M 10.703125 -3.4375 C 12.054688 -3.4375 13.175781 -3.875 14.0625 -4.75 C 14.957031 -5.625 15.40625 -6.875 15.40625 -8.5 L 15.40625 -8.859375 C 15.40625 -10.492188 14.96875 -11.75 14.09375 -12.625 C 13.21875 -13.5 12.085938 -13.9375 10.703125 -13.9375 C 9.359375 -13.9375 8.238281 -13.5 7.34375 -12.625 C 6.457031 -11.75 6.015625 -10.492188 6.015625 -8.859375 L 6.015625 -8.5 C 6.015625 -6.875 6.457031 -5.625 7.34375 -4.75 C 8.238281 -3.875 9.359375 -3.4375 10.703125 -3.4375 Z M 10.703125 -3.4375 "/></g></g></g><g fill="#ffffff" fill-opacity="1"><g transform="translate(54.223226, 100.37504)"><g><path d="M 9.0625 0.28125 C 7.707031 0.28125 6.519531 -0.0234375 5.5 -0.640625 C 4.488281 -1.265625 3.703125 -2.125 3.140625 -3.21875 C 2.585938 -4.3125 2.3125 -5.570312 2.3125 -7 L 2.3125 -17.359375 L 6.71875 -17.359375 L 6.71875 -7.34375 C 6.71875 -6.039062 7.035156 -5.0625 7.671875 -4.40625 C 8.316406 -3.757812 9.238281 -3.4375 10.4375 -3.4375 C 11.78125 -3.4375 12.828125 -3.882812 13.578125 -4.78125 C 14.328125 -5.675781 14.703125 -6.929688 14.703125 -8.546875 L 14.703125 -17.359375 L 19.109375 -17.359375 L 19.109375 0 L 14.765625 0 L 14.765625 -2.28125 L 14.140625 -2.28125 C 13.859375 -1.695312 13.332031 -1.125 12.5625 -0.5625 C 11.789062 0 10.625 0.28125 9.0625 0.28125 Z M 9.0625 0.28125 "/></g></g></g><g fill="#ffffff" fill-opacity="1"><g transform="translate(75.778355, 100.37504)"><g><path d="M 9.09375 0 C 7.957031 0 7.03125 -0.351562 6.3125 -1.0625 C 5.601562 -1.78125 5.25 -2.734375 5.25 -3.921875 L 5.25 -13.71875 L 0.90625 -13.71875 L 0.90625 -17.359375 L 5.25 -17.359375 L 5.25 -22.75 L 9.65625 -22.75 L 9.65625 -17.359375 L 14.421875 -17.359375 L 14.421875 -13.71875 L 9.65625 -13.71875 L 9.65625 -4.6875 C 9.65625 -3.988281 9.984375 -3.640625 10.640625 -3.640625 L 14 -3.640625 L 14 0 Z M 9.09375 0 "/></g></g></g><g fill="#ffffff" fill-opacity="1"><g transform="translate(91.734748, 100.37504)"><g><path d="M 2.453125 0 L 2.453125 -24.5 L 6.859375 -24.5 L 6.859375 -15.21875 L 7.484375 -15.21875 C 7.671875 -15.59375 7.960938 -15.96875 8.359375 -16.34375 C 8.753906 -16.71875 9.285156 -17.023438 9.953125 -17.265625 C 10.617188 -17.515625 11.46875 -17.640625 12.5 -17.640625 C 13.851562 -17.640625 15.035156 -17.328125 16.046875 -16.703125 C 17.054688 -16.085938 17.84375 -15.238281 18.40625 -14.15625 C 18.96875 -13.070312 19.25 -11.804688 19.25 -10.359375 L 19.25 0 L 14.84375 0 L 14.84375 -10.015625 C 14.84375 -11.316406 14.519531 -12.296875 13.875 -12.953125 C 13.238281 -13.609375 12.320312 -13.9375 11.125 -13.9375 C 9.769531 -13.9375 8.71875 -13.484375 7.96875 -12.578125 C 7.226562 -11.679688 6.859375 -10.425781 6.859375 -8.8125 L 6.859375 0 Z M 2.453125 0 "/></g></g></g><g fill="#ffffff" fill-opacity="1"><g transform="translate(113.289877, 100.37504)"><g><path d="M 2.453125 0 L 2.453125 -24.5 L 6.859375 -24.5 L 6.859375 0 Z M 2.453125 0 "/></g></g></g><g fill="#ffffff" fill-opacity="1"><g transform="translate(122.59778, 100.37504)"><g><path d="M 2.453125 0 L 2.453125 -17.359375 L 6.859375 -17.359375 L 6.859375 0 Z M 4.65625 -19.390625 C 3.863281 -19.390625 3.191406 -19.644531 2.640625 -20.15625 C 2.097656 -20.675781 1.828125 -21.351562 1.828125 -22.1875 C 1.828125 -23.03125 2.097656 -23.707031 2.640625 -24.21875 C 3.191406 -24.726562 3.863281 -24.984375 4.65625 -24.984375 C 5.46875 -24.984375 6.140625 -24.726562 6.671875 -24.21875 C 7.210938 -23.707031 7.484375 -23.03125 7.484375 -22.1875 C 7.484375 -21.351562 7.210938 -20.675781 6.671875 -20.15625 C 6.140625 -19.644531 5.46875 -19.390625 4.65625 -19.390625 Z M 4.65625 -19.390625 "/></g></g></g><g fill="#ffffff" fill-opacity="1"><g transform="translate(131.905683, 100.37504)"><g><path d="M 2.453125 0 L 2.453125 -17.359375 L 6.796875 -17.359375 L 6.796875 -15.078125 L 7.421875 -15.078125 C 7.703125 -15.691406 8.226562 -16.269531 9 -16.8125 C 9.769531 -17.363281 10.9375 -17.640625 12.5 -17.640625 C 13.851562 -17.640625 15.035156 -17.328125 16.046875 -16.703125 C 17.054688 -16.085938 17.84375 -15.238281 18.40625 -14.15625 C 18.96875 -13.070312 19.25 -11.804688 19.25 -10.359375 L 19.25 0 L 14.84375 0 L 14.84375 -10.015625 C 14.84375 -11.316406 14.519531 -12.296875 13.875 -12.953125 C 13.238281 -13.609375 12.320312 -13.9375 11.125 -13.9375 C 9.769531 -13.9375 8.71875 -13.484375 7.96875 -12.578125 C 7.226562 -11.679688 6.859375 -10.425781 6.859375 -8.8125 L 6.859375 0 Z M 2.453125 0 "/></g></g></g><g fill="#ffffff" fill-opacity="1"><g transform="translate(153.460811, 100.37504)"><g><path d="M 10.359375 0.484375 C 8.628906 0.484375 7.101562 0.117188 5.78125 -0.609375 C 4.46875 -1.347656 3.441406 -2.382812 2.703125 -3.71875 C 1.972656 -5.0625 1.609375 -6.644531 1.609375 -8.46875 L 1.609375 -8.890625 C 1.609375 -10.710938 1.96875 -12.289062 2.6875 -13.625 C 3.414062 -14.96875 4.429688 -16.003906 5.734375 -16.734375 C 7.046875 -17.472656 8.566406 -17.84375 10.296875 -17.84375 C 11.992188 -17.84375 13.472656 -17.460938 14.734375 -16.703125 C 15.992188 -15.953125 16.972656 -14.90625 17.671875 -13.5625 C 18.367188 -12.21875 18.71875 -10.660156 18.71875 -8.890625 L 18.71875 -7.390625 L 6.09375 -7.390625 C 6.132812 -6.191406 6.578125 -5.21875 7.421875 -4.46875 C 8.265625 -3.726562 9.289062 -3.359375 10.5 -3.359375 C 11.738281 -3.359375 12.648438 -3.625 13.234375 -4.15625 C 13.816406 -4.695312 14.257812 -5.296875 14.5625 -5.953125 L 18.171875 -4.0625 C 17.835938 -3.457031 17.359375 -2.796875 16.734375 -2.078125 C 16.117188 -1.367188 15.296875 -0.765625 14.265625 -0.265625 C 13.242188 0.234375 11.941406 0.484375 10.359375 0.484375 Z M 6.125 -10.671875 L 14.25 -10.671875 C 14.15625 -11.679688 13.75 -12.488281 13.03125 -13.09375 C 12.320312 -13.695312 11.394531 -14 10.25 -14 C 9.0625 -14 8.117188 -13.695312 7.421875 -13.09375 C 6.722656 -12.488281 6.289062 -11.679688 6.125 -10.671875 Z M 6.125 -10.671875 "/></g></g></g><g fill="#ffffff" fill-opacity="1"><g transform="translate(79.895503, 151.624998)"><g><path d="M 3.359375 0 L 1.15625 -9.71875 L 2.40625 -9.71875 L 4.3125 -0.796875 L 4.5625 -0.796875 L 7.0625 -9.71875 L 9.09375 -9.71875 L 11.59375 -0.796875 L 11.84375 -0.796875 L 13.765625 -9.71875 L 15 -9.71875 L 12.796875 0 L 10.703125 0 L 8.203125 -8.921875 L 7.953125 -8.921875 L 5.453125 0 Z M 3.359375 0 "/></g></g></g><g fill="#ffffff" fill-opacity="1"><g transform="translate(96.049135, 151.624998)"><g><path d="M 1.765625 0 L 1.765625 -14 L 2.953125 -14 L 2.953125 -8.015625 L 3.203125 -8.015625 C 3.359375 -8.335938 3.578125 -8.640625 3.859375 -8.921875 C 4.148438 -9.210938 4.523438 -9.445312 4.984375 -9.625 C 5.453125 -9.8125 6.03125 -9.90625 6.71875 -9.90625 C 7.425781 -9.90625 8.070312 -9.753906 8.65625 -9.453125 C 9.25 -9.160156 9.71875 -8.722656 10.0625 -8.140625 C 10.414062 -7.554688 10.59375 -6.816406 10.59375 -5.921875 L 10.59375 0 L 9.40625 0 L 9.40625 -5.84375 C 9.40625 -6.90625 9.132812 -7.664062 8.59375 -8.125 C 8.0625 -8.582031 7.347656 -8.8125 6.453125 -8.8125 C 5.453125 -8.8125 4.617188 -8.484375 3.953125 -7.828125 C 3.285156 -7.179688 2.953125 -6.191406 2.953125 -4.859375 L 2.953125 0 Z M 1.765625 0 "/></g></g></g><g fill="#ffffff" fill-opacity="1"><g transform="translate(108.284311, 151.624998)"><g><path d="M 4.734375 0.28125 C 4.054688 0.28125 3.441406 0.164062 2.890625 -0.0625 C 2.335938 -0.300781 1.898438 -0.644531 1.578125 -1.09375 C 1.253906 -1.550781 1.09375 -2.097656 1.09375 -2.734375 C 1.09375 -3.390625 1.253906 -3.929688 1.578125 -4.359375 C 1.898438 -4.785156 2.332031 -5.101562 2.875 -5.3125 C 3.425781 -5.53125 4.035156 -5.640625 4.703125 -5.640625 L 8.265625 -5.640625 L 8.265625 -6.421875 C 8.265625 -7.203125 8.035156 -7.8125 7.578125 -8.25 C 7.128906 -8.695312 6.46875 -8.921875 5.59375 -8.921875 C 4.738281 -8.921875 4.0625 -8.707031 3.5625 -8.28125 C 3.0625 -7.863281 2.726562 -7.300781 2.5625 -6.59375 L 1.40625 -6.9375 C 1.5625 -7.507812 1.8125 -8.023438 2.15625 -8.484375 C 2.507812 -8.953125 2.972656 -9.320312 3.546875 -9.59375 C 4.117188 -9.863281 4.800781 -10 5.59375 -10 C 6.820312 -10 7.769531 -9.675781 8.4375 -9.03125 C 9.113281 -8.394531 9.453125 -7.503906 9.453125 -6.359375 L 9.453125 -1.640625 C 9.453125 -1.242188 9.640625 -1.046875 10.015625 -1.046875 L 10.953125 -1.046875 L 10.953125 0 L 9.6875 0 C 9.269531 0 8.941406 -0.117188 8.703125 -0.359375 C 8.460938 -0.609375 8.34375 -0.945312 8.34375 -1.375 L 8.34375 -1.515625 L 8.140625 -1.515625 C 7.960938 -1.222656 7.738281 -0.9375 7.46875 -0.65625 C 7.195312 -0.375 6.835938 -0.148438 6.390625 0.015625 C 5.953125 0.191406 5.398438 0.28125 4.734375 0.28125 Z M 4.8125 -0.796875 C 5.84375 -0.796875 6.675781 -1.101562 7.3125 -1.71875 C 7.945312 -2.34375 8.265625 -3.222656 8.265625 -4.359375 L 8.265625 -4.59375 L 4.71875 -4.59375 C 4.03125 -4.59375 3.453125 -4.441406 2.984375 -4.140625 C 2.523438 -3.847656 2.296875 -3.390625 2.296875 -2.765625 C 2.296875 -2.128906 2.53125 -1.640625 3 -1.296875 C 3.476562 -0.960938 4.082031 -0.796875 4.8125 -0.796875 Z M 4.8125 -0.796875 "/></g></g></g><g fill="#ffffff" fill-opacity="1"><g transform="translate(119.759782, 151.624998)"><g><path d="M 1.765625 0 L 1.765625 -14 L 2.953125 -14 L 2.953125 -5.5625 L 3.203125 -5.5625 L 8.1875 -9.71875 L 9.9375 -9.71875 L 4.1875 -4.984375 L 10.09375 0 L 8.359375 0 L 3.203125 -4.375 L 2.953125 -4.375 L 2.953125 0 Z M 1.765625 0 "/></g></g></g><g fill="#ffffff" fill-opacity="1"><g transform="translate(130.295624, 151.624998)"><g><path d="M 4.734375 0.28125 C 4.054688 0.28125 3.441406 0.164062 2.890625 -0.0625 C 2.335938 -0.300781 1.898438 -0.644531 1.578125 -1.09375 C 1.253906 -1.550781 1.09375 -2.097656 1.09375 -2.734375 C 1.09375 -3.390625 1.253906 -3.929688 1.578125 -4.359375 C 1.898438 -4.785156 2.332031 -5.101562 2.875 -5.3125 C 3.425781 -5.53125 4.035156 -5.640625 4.703125 -5.640625 L 8.265625 -5.640625 L 8.265625 -6.421875 C 8.265625 -7.203125 8.035156 -7.8125 7.578125 -8.25 C 7.128906 -8.695312 6.46875 -8.921875 5.59375 -8.921875 C 4.738281 -8.921875 4.0625 -8.707031 3.5625 -8.28125 C 3.0625 -7.863281 2.726562 -7.300781 2.5625 -6.59375 L 1.40625 -6.9375 C 1.5625 -7.507812 1.8125 -8.023438 2.15625 -8.484375 C 2.507812 -8.953125 2.972656 -9.320312 3.546875 -9.59375 C 4.117188 -9.863281 4.800781 -10 5.59375 -10 C 6.820312 -10 7.769531 -9.675781 8.4375 -9.03125 C 9.113281 -8.394531 9.453125 -7.503906 9.453125 -6.359375 L 9.453125 -1.640625 C 9.453125 -1.242188 9.640625 -1.046875 10.015625 -1.046875 L 10.953125 -1.046875 L 10.953125 0 L 9.6875 0 C 9.269531 0 8.941406 -0.117188 8.703125 -0.359375 C 8.460938 -0.609375 8.34375 -0.945312 8.34375 -1.375 L 8.34375 -1.515625 L 8.140625 -1.515625 C 7.960938 -1.222656 7.738281 -0.9375 7.46875 -0.65625 C 7.195312 -0.375 6.835938 -0.148438 6.390625 0.015625 C 5.953125 0.191406 5.398438 0.28125 4.734375 0.28125 Z M 4.8125 -0.796875 C 5.84375 -0.796875 6.675781 -1.101562 7.3125 -1.71875 C 7.945312 -2.34375 8.265625 -3.222656 8.265625 -4.359375 L 8.265625 -4.59375 L 4.71875 -4.59375 C 4.03125 -4.59375 3.453125 -4.441406 2.984375 -4.140625 C 2.523438 -3.847656 2.296875 -3.390625 2.296875 -2.765625 C 2.296875 -2.128906 2.53125 -1.640625 3 -1.296875 C 3.476562 -0.960938 4.082031 -0.796875 4.8125 -0.796875 Z M 4.8125 -0.796875 "/></g></g></g><g fill="#ffffff" fill-opacity="1"><g transform="translate(141.771095, 151.624998)"><g><path d="M 5.28125 0 C 4.757812 0 4.367188 -0.128906 4.109375 -0.390625 C 3.847656 -0.660156 3.71875 -1.035156 3.71875 -1.515625 L 3.71875 -8.640625 L 0.59375 -8.640625 L 0.59375 -9.71875 L 3.71875 -9.71875 L 3.71875 -13.359375 L 4.921875 -13.359375 L 4.921875 -9.71875 L 8.3125 -9.71875 L 8.3125 -8.640625 L 4.921875 -8.640625 L 4.921875 -1.6875 C 4.921875 -1.28125 5.117188 -1.078125 5.515625 -1.078125 L 7.796875 -1.078125 L 7.796875 0 Z M 5.28125 0 "/></g></g></g><g fill="#ffffff" fill-opacity="1"><g transform="translate(151.00745, 151.624998)"><g><path d="M 4.734375 0.28125 C 4.054688 0.28125 3.441406 0.164062 2.890625 -0.0625 C 2.335938 -0.300781 1.898438 -0.644531 1.578125 -1.09375 C 1.253906 -1.550781 1.09375 -2.097656 1.09375 -2.734375 C 1.09375 -3.390625 1.253906 -3.929688 1.578125 -4.359375 C 1.898438 -4.785156 2.332031 -5.101562 2.875 -5.3125 C 3.425781 -5.53125 4.035156 -5.640625 4.703125 -5.640625 L 8.265625 -5.640625 L 8.265625 -6.421875 C 8.265625 -7.203125 8.035156 -7.8125 7.578125 -8.25 C 7.128906 -8.695312 6.46875 -8.921875 5.59375 -8.921875 C 4.738281 -8.921875 4.0625 -8.707031 3.5625 -8.28125 C 3.0625 -7.863281 2.726562 -7.300781 2.5625 -6.59375 L 1.40625 -6.9375 C 1.5625 -7.507812 1.8125 -8.023438 2.15625 -8.484375 C 2.507812 -8.953125 2.972656 -9.320312 3.546875 -9.59375 C 4.117188 -9.863281 4.800781 -10 5.59375 -10 C 6.820312 -10 7.769531 -9.675781 8.4375 -9.03125 C 9.113281 -8.394531 9.453125 -7.503906 9.453125 -6.359375 L 9.453125 -1.640625 C 9.453125 -1.242188 9.640625 -1.046875 10.015625 -1.046875 L 10.953125 -1.046875 L 10.953125 0 L 9.6875 0 C 9.269531 0 8.941406 -0.117188 8.703125 -0.359375 C 8.460938 -0.609375 8.34375 -0.945312 8.34375 -1.375 L 8.34375 -1.515625 L 8.140625 -1.515625 C 7.960938 -1.222656 7.738281 -0.9375 7.46875 -0.65625 C 7.195312 -0.375 6.835938 -0.148438 6.390625 0.015625 C 5.953125 0.191406 5.398438 0.28125 4.734375 0.28125 Z M 4.8125 -0.796875 C 5.84375 -0.796875 6.675781 -1.101562 7.3125 -1.71875 C 7.945312 -2.34375 8.265625 -3.222656 8.265625 -4.359375 L 8.265625 -4.59375 L 4.71875 -4.59375 C 4.03125 -4.59375 3.453125 -4.441406 2.984375 -4.140625 C 2.523438 -3.847656 2.296875 -3.390625 2.296875 -2.765625 C 2.296875 -2.128906 2.53125 -1.640625 3 -1.296875 C 3.476562 -0.960938 4.082031 -0.796875 4.8125 -0.796875 Z M 4.8125 -0.796875 "/></g></g></g><g fill="#ffffff" fill-opacity="1"><g transform="translate(162.482921, 151.624998)"><g><path d="M 1.765625 4 L 1.765625 -9.71875 L 2.921875 -9.71875 L 2.921875 -7.9375 L 3.15625 -7.9375 C 3.4375 -8.46875 3.875 -8.941406 4.46875 -9.359375 C 5.0625 -9.785156 5.890625 -10 6.953125 -10 C 7.828125 -10 8.613281 -9.796875 9.3125 -9.390625 C 10.019531 -8.984375 10.582031 -8.40625 11 -7.65625 C 11.425781 -6.914062 11.640625 -6.023438 11.640625 -4.984375 L 11.640625 -4.734375 C 11.640625 -3.710938 11.429688 -2.820312 11.015625 -2.0625 C 10.609375 -1.3125 10.050781 -0.734375 9.34375 -0.328125 C 8.632812 0.078125 7.835938 0.28125 6.953125 0.28125 C 6.253906 0.28125 5.65625 0.1875 5.15625 0 C 4.65625 -0.195312 4.242188 -0.445312 3.921875 -0.75 C 3.609375 -1.0625 3.367188 -1.378906 3.203125 -1.703125 L 2.953125 -1.703125 L 2.953125 4 Z M 6.6875 -0.796875 C 7.789062 -0.796875 8.6875 -1.148438 9.375 -1.859375 C 10.0625 -2.566406 10.40625 -3.539062 10.40625 -4.78125 L 10.40625 -4.9375 C 10.40625 -6.175781 10.0625 -7.148438 9.375 -7.859375 C 8.6875 -8.566406 7.789062 -8.921875 6.6875 -8.921875 C 5.59375 -8.921875 4.695312 -8.566406 4 -7.859375 C 3.300781 -7.148438 2.953125 -6.175781 2.953125 -4.9375 L 2.953125 -4.78125 C 2.953125 -3.539062 3.300781 -2.566406 4 -1.859375 C 4.695312 -1.148438 5.59375 -0.796875 6.6875 -0.796875 Z M 6.6875 -0.796875 "/></g></g></g><g fill="#ffffff" fill-opacity="1"><g transform="translate(175.39783, 151.624998)"><g><path d="M 5.5 0.203125 C 4.800781 0.203125 4.15625 0.0546875 3.5625 -0.234375 C 2.976562 -0.535156 2.507812 -0.976562 2.15625 -1.5625 C 1.800781 -2.15625 1.625 -2.898438 1.625 -3.796875 L 1.625 -9.71875 L 2.8125 -9.71875 L 2.8125 -3.875 C 2.8125 -2.820312 3.078125 -2.054688 3.609375 -1.578125 C 4.148438 -1.109375 4.867188 -0.875 5.765625 -0.875 C 6.765625 -0.875 7.597656 -1.203125 8.265625 -1.859375 C 8.929688 -2.523438 9.265625 -3.523438 9.265625 -4.859375 L 9.265625 -9.71875 L 10.453125 -9.71875 L 10.453125 0 L 9.296875 0 L 9.296875 -1.796875 L 9.0625 -1.796875 C 8.820312 -1.273438 8.425781 -0.8125 7.875 -0.40625 C 7.332031 0 6.539062 0.203125 5.5 0.203125 Z M 5.5 0.203125 "/></g></g></g><g fill="#ffffff" fill-opacity="1"><g transform="translate(187.613012, 151.624998)"><g><path d="M 4.734375 0.28125 C 4.054688 0.28125 3.441406 0.164062 2.890625 -0.0625 C 2.335938 -0.300781 1.898438 -0.644531 1.578125 -1.09375 C 1.253906 -1.550781 1.09375 -2.097656 1.09375 -2.734375 C 1.09375 -3.390625 1.253906 -3.929688 1.578125 -4.359375 C 1.898438 -4.785156 2.332031 -5.101562 2.875 -5.3125 C 3.425781 -5.53125 4.035156 -5.640625 4.703125 -5.640625 L 8.265625 -5.640625 L 8.265625 -6.421875 C 8.265625 -7.203125 8.035156 -7.8125 7.578125 -8.25 C 7.128906 -8.695312 6.46875 -8.921875 5.59375 -8.921875 C 4.738281 -8.921875 4.0625 -8.707031 3.5625 -8.28125 C 3.0625 -7.863281 2.726562 -7.300781 2.5625 -6.59375 L 1.40625 -6.9375 C 1.5625 -7.507812 1.8125 -8.023438 2.15625 -8.484375 C 2.507812 -8.953125 2.972656 -9.320312 3.546875 -9.59375 C 4.117188 -9.863281 4.800781 -10 5.59375 -10 C 6.820312 -10 7.769531 -9.675781 8.4375 -9.03125 C 9.113281 -8.394531 9.453125 -7.503906 9.453125 -6.359375 L 9.453125 -1.640625 C 9.453125 -1.242188 9.640625 -1.046875 10.015625 -1.046875 L 10.953125 -1.046875 L 10.953125 0 L 9.6875 0 C 9.269531 0 8.941406 -0.117188 8.703125 -0.359375 C 8.460938 -0.609375 8.34375 -0.945312 8.34375 -1.375 L 8.34375 -1.515625 L 8.140625 -1.515625 C 7.960938 -1.222656 7.738281 -0.9375 7.46875 -0.65625 C 7.195312 -0.375 6.835938 -0.148438 6.390625 0.015625 C 5.953125 0.191406 5.398438 0.28125 4.734375 0.28125 Z M 4.8125 -0.796875 C 5.84375 -0.796875 6.675781 -1.101562 7.3125 -1.71875 C 7.945312 -2.34375 8.265625 -3.222656 8.265625 -4.359375 L 8.265625 -4.59375 L 4.71875 -4.59375 C 4.03125 -4.59375 3.453125 -4.441406 2.984375 -4.140625 C 2.523438 -3.847656 2.296875 -3.390625 2.296875 -2.765625 C 2.296875 -2.128906 2.53125 -1.640625 3 -1.296875 C 3.476562 -0.960938 4.082031 -0.796875 4.8125 -0.796875 Z M 4.8125 -0.796875 "/></g></g></g><g fill="#ffffff" fill-opacity="1"><g transform="translate(199.088484, 151.624998)"><g/></g></g><g fill="#ffffff" fill-opacity="1"><g transform="translate(204.24645, 151.624998)"><g><path d="M 1.765625 0 L 1.765625 -14 L 2.953125 -14 L 2.953125 -5.5625 L 3.203125 -5.5625 L 8.1875 -9.71875 L 9.9375 -9.71875 L 4.1875 -4.984375 L 10.09375 0 L 8.359375 0 L 3.203125 -4.375 L 2.953125 -4.375 L 2.953125 0 Z M 1.765625 0 "/></g></g></g><g fill="#ffffff" fill-opacity="1"><g transform="translate(214.782292, 151.624998)"><g><path d="M 1.765625 0 L 1.765625 -9.71875 L 2.953125 -9.71875 L 2.953125 0 Z M 2.359375 -11.40625 C 2.066406 -11.40625 1.820312 -11.503906 1.625 -11.703125 C 1.425781 -11.898438 1.328125 -12.144531 1.328125 -12.4375 C 1.328125 -12.75 1.425781 -13 1.625 -13.1875 C 1.820312 -13.382812 2.066406 -13.484375 2.359375 -13.484375 C 2.671875 -13.484375 2.921875 -13.382812 3.109375 -13.1875 C 3.304688 -13 3.40625 -12.75 3.40625 -12.4375 C 3.40625 -12.144531 3.304688 -11.898438 3.109375 -11.703125 C 2.921875 -11.503906 2.671875 -11.40625 2.359375 -11.40625 Z M 2.359375 -11.40625 "/></g></g></g><g fill="#ffffff" fill-opacity="1"><g transform="translate(219.500428, 151.624998)"><g><path d="M 4.734375 0.28125 C 4.054688 0.28125 3.441406 0.164062 2.890625 -0.0625 C 2.335938 -0.300781 1.898438 -0.644531 1.578125 -1.09375 C 1.253906 -1.550781 1.09375 -2.097656 1.09375 -2.734375 C 1.09375 -3.390625 1.253906 -3.929688 1.578125 -4.359375 C 1.898438 -4.785156 2.332031 -5.101562 2.875 -5.3125 C 3.425781 -5.53125 4.035156 -5.640625 4.703125 -5.640625 L 8.265625 -5.640625 L 8.265625 -6.421875 C 8.265625 -7.203125 8.035156 -7.8125 7.578125 -8.25 C 7.128906 -8.695312 6.46875 -8.921875 5.59375 -8.921875 C 4.738281 -8.921875 4.0625 -8.707031 3.5625 -8.28125 C 3.0625 -7.863281 2.726562 -7.300781 2.5625 -6.59375 L 1.40625 -6.9375 C 1.5625 -7.507812 1.8125 -8.023438 2.15625 -8.484375 C 2.507812 -8.953125 2.972656 -9.320312 3.546875 -9.59375 C 4.117188 -9.863281 4.800781 -10 5.59375 -10 C 6.820312 -10 7.769531 -9.675781 8.4375 -9.03125 C 9.113281 -8.394531 9.453125 -7.503906 9.453125 -6.359375 L 9.453125 -1.640625 C 9.453125 -1.242188 9.640625 -1.046875 10.015625 -1.046875 L 10.953125 -1.046875 L 10.953125 0 L 9.6875 0 C 9.269531 0 8.941406 -0.117188 8.703125 -0.359375 C 8.460938 -0.609375 8.34375 -0.945312 8.34375 -1.375 L 8.34375 -1.515625 L 8.140625 -1.515625 C 7.960938 -1.222656 7.738281 -0.9375 7.46875 -0.65625 C 7.195312 -0.375 6.835938 -0.148438 6.390625 0.015625 C 5.953125 0.191406 5.398438 0.28125 4.734375 0.28125 Z M 4.8125 -0.796875 C 5.84375 -0.796875 6.675781 -1.101562 7.3125 -1.71875 C 7.945312 -2.34375 8.265625 -3.222656 8.265625 -4.359375 L 8.265625 -4.59375 L 4.71875 -4.59375 C 4.03125 -4.59375 3.453125 -4.441406 2.984375 -4.140625 C 2.523438 -3.847656 2.296875 -3.390625 2.296875 -2.765625 C 2.296875 -2.128906 2.53125 -1.640625 3 -1.296875 C 3.476562 -0.960938 4.082031 -0.796875 4.8125 -0.796875 Z M 4.8125 -0.796875 "/></g></g></g><g fill="#ffffff" fill-opacity="1"><g transform="translate(230.975899, 151.624998)"><g/></g></g><g fill="#ffffff" fill-opacity="1"><g transform="translate(236.133865, 151.624998)"><g><path d="M 6.203125 0.28125 C 5.210938 0.28125 4.347656 0.0703125 3.609375 -0.34375 C 2.867188 -0.769531 2.296875 -1.359375 1.890625 -2.109375 C 1.484375 -2.859375 1.28125 -3.734375 1.28125 -4.734375 L 1.28125 -4.984375 C 1.28125 -5.984375 1.484375 -6.859375 1.890625 -7.609375 C 2.296875 -8.359375 2.867188 -8.941406 3.609375 -9.359375 C 4.347656 -9.785156 5.210938 -10 6.203125 -10 C 7.191406 -10 8.054688 -9.785156 8.796875 -9.359375 C 9.535156 -8.941406 10.109375 -8.359375 10.515625 -7.609375 C 10.921875 -6.859375 11.125 -5.984375 11.125 -4.984375 L 11.125 -4.734375 C 11.125 -3.734375 10.921875 -2.859375 10.515625 -2.109375 C 10.109375 -1.359375 9.535156 -0.769531 8.796875 -0.34375 C 8.054688 0.0703125 7.191406 0.28125 6.203125 0.28125 Z M 6.203125 -0.796875 C 7.347656 -0.796875 8.253906 -1.160156 8.921875 -1.890625 C 9.585938 -2.617188 9.921875 -3.582031 9.921875 -4.78125 L 9.921875 -4.9375 C 9.921875 -6.132812 9.585938 -7.097656 8.921875 -7.828125 C 8.253906 -8.554688 7.347656 -8.921875 6.203125 -8.921875 C 5.066406 -8.921875 4.160156 -8.554688 3.484375 -7.828125 C 2.816406 -7.097656 2.484375 -6.132812 2.484375 -4.9375 L 2.484375 -4.78125 C 2.484375 -3.582031 2.816406 -2.617188 3.484375 -1.890625 C 4.160156 -1.160156 5.066406 -0.796875 6.203125 -0.796875 Z M 6.203125 -0.796875 "/></g></g></g><g fill="#ffffff" fill-opacity="1"><g transform="translate(248.528972, 151.624998)"><g><path d="M 1.765625 0 L 1.765625 -9.71875 L 2.921875 -9.71875 L 2.921875 -8.5 L 3.15625 -8.5 C 3.34375 -8.9375 3.617188 -9.253906 3.984375 -9.453125 C 4.359375 -9.660156 4.867188 -9.765625 5.515625 -9.765625 L 6.65625 -9.765625 L 6.65625 -8.640625 L 5.375 -8.640625 C 4.644531 -8.640625 4.054688 -8.429688 3.609375 -8.015625 C 3.171875 -7.609375 2.953125 -6.960938 2.953125 -6.078125 L 2.953125 0 Z M 1.765625 0 "/></g></g></g><g fill="#ffffff" fill-opacity="1"><g transform="translate(255.906062, 151.624998)"><g><path d="M 4.734375 0.28125 C 4.054688 0.28125 3.441406 0.164062 2.890625 -0.0625 C 2.335938 -0.300781 1.898438 -0.644531 1.578125 -1.09375 C 1.253906 -1.550781 1.09375 -2.097656 1.09375 -2.734375 C 1.09375 -3.390625 1.253906 -3.929688 1.578125 -4.359375 C 1.898438 -4.785156 2.332031 -5.101562 2.875 -5.3125 C 3.425781 -5.53125 4.035156 -5.640625 4.703125 -5.640625 L 8.265625 -5.640625 L 8.265625 -6.421875 C 8.265625 -7.203125 8.035156 -7.8125 7.578125 -8.25 C 7.128906 -8.695312 6.46875 -8.921875 5.59375 -8.921875 C 4.738281 -8.921875 4.0625 -8.707031 3.5625 -8.28125 C 3.0625 -7.863281 2.726562 -7.300781 2.5625 -6.59375 L 1.40625 -6.9375 C 1.5625 -7.507812 1.8125 -8.023438 2.15625 -8.484375 C 2.507812 -8.953125 2.972656 -9.320312 3.546875 -9.59375 C 4.117188 -9.863281 4.800781 -10 5.59375 -10 C 6.820312 -10 7.769531 -9.675781 8.4375 -9.03125 C 9.113281 -8.394531 9.453125 -7.503906 9.453125 -6.359375 L 9.453125 -1.640625 C 9.453125 -1.242188 9.640625 -1.046875 10.015625 -1.046875 L 10.953125 -1.046875 L 10.953125 0 L 9.6875 0 C 9.269531 0 8.941406 -0.117188 8.703125 -0.359375 C 8.460938 -0.609375 8.34375 -0.945312 8.34375 -1.375 L 8.34375 -1.515625 L 8.140625 -1.515625 C 7.960938 -1.222656 7.738281 -0.9375 7.46875 -0.65625 C 7.195312 -0.375 6.835938 -0.148438 6.390625 0.015625 C 5.953125 0.191406 5.398438 0.28125 4.734375 0.28125 Z M 4.8125 -0.796875 C 5.84375 -0.796875 6.675781 -1.101562 7.3125 -1.71875 C 7.945312 -2.34375 8.265625 -3.222656 8.265625 -4.359375 L 8.265625 -4.59375 L 4.71875 -4.59375 C 4.03125 -4.59375 3.453125 -4.441406 2.984375 -4.140625 C 2.523438 -3.847656 2.296875 -3.390625 2.296875 -2.765625 C 2.296875 -2.128906 2.53125 -1.640625 3 -1.296875 C 3.476562 -0.960938 4.082031 -0.796875 4.8125 -0.796875 Z M 4.8125 -0.796875 "/></g></g></g><g fill="#ffffff" fill-opacity="1"><g transform="translate(267.381533, 151.624998)"><g/></g></g><g fill="#ffffff" fill-opacity="1"><g transform="translate(272.5395, 151.624998)"><g><path d="M 4.734375 0.28125 C 4.054688 0.28125 3.441406 0.164062 2.890625 -0.0625 C 2.335938 -0.300781 1.898438 -0.644531 1.578125 -1.09375 C 1.253906 -1.550781 1.09375 -2.097656 1.09375 -2.734375 C 1.09375 -3.390625 1.253906 -3.929688 1.578125 -4.359375 C 1.898438 -4.785156 2.332031 -5.101562 2.875 -5.3125 C 3.425781 -5.53125 4.035156 -5.640625 4.703125 -5.640625 L 8.265625 -5.640625 L 8.265625 -6.421875 C 8.265625 -7.203125 8.035156 -7.8125 7.578125 -8.25 C 7.128906 -8.695312 6.46875 -8.921875 5.59375 -8.921875 C 4.738281 -8.921875 4.0625 -8.707031 3.5625 -8.28125 C 3.0625 -7.863281 2.726562 -7.300781 2.5625 -6.59375 L 1.40625 -6.9375 C 1.5625 -7.507812 1.8125 -8.023438 2.15625 -8.484375 C 2.507812 -8.953125 2.972656 -9.320312 3.546875 -9.59375 C 4.117188 -9.863281 4.800781 -10 5.59375 -10 C 6.820312 -10 7.769531 -9.675781 8.4375 -9.03125 C 9.113281 -8.394531 9.453125 -7.503906 9.453125 -6.359375 L 9.453125 -1.640625 C 9.453125 -1.242188 9.640625 -1.046875 10.015625 -1.046875 L 10.953125 -1.046875 L 10.953125 0 L 9.6875 0 C 9.269531 0 8.941406 -0.117188 8.703125 -0.359375 C 8.460938 -0.609375 8.34375 -0.945312 8.34375 -1.375 L 8.34375 -1.515625 L 8.140625 -1.515625 C 7.960938 -1.222656 7.738281 -0.9375 7.46875 -0.65625 C 7.195312 -0.375 6.835938 -0.148438 6.390625 0.015625 C 5.953125 0.191406 5.398438 0.28125 4.734375 0.28125 Z M 4.8125 -0.796875 C 5.84375 -0.796875 6.675781 -1.101562 7.3125 -1.71875 C 7.945312 -2.34375 8.265625 -3.222656 8.265625 -4.359375 L 8.265625 -4.59375 L 4.71875 -4.59375 C 4.03125 -4.59375 3.453125 -4.441406 2.984375 -4.140625 C 2.523438 -3.847656 2.296875 -3.390625 2.296875 -2.765625 C 2.296875 -2.128906 2.53125 -1.640625 3 -1.296875 C 3.476562 -0.960938 4.082031 -0.796875 4.8125 -0.796875 Z M 4.8125 -0.796875 "/></g></g></g><g fill="#ffffff" fill-opacity="1"><g transform="translate(284.014971, 151.624998)"><g><path d="M 1.765625 0 L 1.765625 -9.71875 L 2.953125 -9.71875 L 2.953125 0 Z M 2.359375 -11.40625 C 2.066406 -11.40625 1.820312 -11.503906 1.625 -11.703125 C 1.425781 -11.898438 1.328125 -12.144531 1.328125 -12.4375 C 1.328125 -12.75 1.425781 -13 1.625 -13.1875 C 1.820312 -13.382812 2.066406 -13.484375 2.359375 -13.484375 C 2.671875 -13.484375 2.921875 -13.382812 3.109375 -13.1875 C 3.304688 -13 3.40625 -12.75 3.40625 -12.4375 C 3.40625 -12.144531 3.304688 -11.898438 3.109375 -11.703125 C 2.921875 -11.503906 2.671875 -11.40625 2.359375 -11.40625 Z M 2.359375 -11.40625 "/></g></g></g><g fill="#ffffff" fill-opacity="1"><g transform="translate(79.883785, 127.875019)"><g><path d="M 5.203125 0 C 4.546875 0 4.015625 -0.203125 3.609375 -0.609375 C 3.203125 -1.015625 3 -1.554688 3 -2.234375 L 3 -7.84375 L 0.515625 -7.84375 L 0.515625 -9.921875 L 3 -9.921875 L 3 -13 L 5.515625 -13 L 5.515625 -9.921875 L 8.234375 -9.921875 L 8.234375 -7.84375 L 5.515625 -7.84375 L 5.515625 -2.6875 C 5.515625 -2.28125 5.703125 -2.078125 6.078125 -2.078125 L 8 -2.078125 L 8 0 Z M 5.203125 0 "/></g></g></g><g fill="#ffffff" fill-opacity="1"><g transform="translate(89.000193, 127.875019)"><g><path d="M 5.921875 0.28125 C 4.929688 0.28125 4.0625 0.0703125 3.3125 -0.34375 C 2.5625 -0.769531 1.972656 -1.363281 1.546875 -2.125 C 1.128906 -2.894531 0.921875 -3.800781 0.921875 -4.84375 L 0.921875 -5.078125 C 0.921875 -6.117188 1.125 -7.019531 1.53125 -7.78125 C 1.945312 -8.550781 2.53125 -9.144531 3.28125 -9.5625 C 4.03125 -9.988281 4.894531 -10.203125 5.875 -10.203125 C 6.851562 -10.203125 7.703125 -9.984375 8.421875 -9.546875 C 9.140625 -9.117188 9.695312 -8.519531 10.09375 -7.75 C 10.5 -6.976562 10.703125 -6.085938 10.703125 -5.078125 L 10.703125 -4.21875 L 3.484375 -4.21875 C 3.503906 -3.539062 3.753906 -2.988281 4.234375 -2.5625 C 4.710938 -2.132812 5.300781 -1.921875 6 -1.921875 C 6.707031 -1.921875 7.226562 -2.070312 7.5625 -2.375 C 7.894531 -2.6875 8.144531 -3.03125 8.3125 -3.40625 L 10.375 -2.3125 C 10.1875 -1.96875 9.914062 -1.59375 9.5625 -1.1875 C 9.21875 -0.78125 8.75 -0.429688 8.15625 -0.140625 C 7.570312 0.140625 6.828125 0.28125 5.921875 0.28125 Z M 3.5 -6.09375 L 8.140625 -6.09375 C 8.085938 -6.664062 7.859375 -7.125 7.453125 -7.46875 C 7.046875 -7.820312 6.515625 -8 5.859375 -8 C 5.179688 -8 4.640625 -7.820312 4.234375 -7.46875 C 3.835938 -7.125 3.59375 -6.664062 3.5 -6.09375 Z M 3.5 -6.09375 "/></g></g></g><g fill="#ffffff" fill-opacity="1"><g transform="translate(100.535643, 127.875019)"><g/></g></g><g fill="#ffffff" fill-opacity="1"><g transform="translate(105.613638, 127.875019)"><g><path d="M 4.484375 0.28125 C 3.773438 0.28125 3.140625 0.160156 2.578125 -0.078125 C 2.015625 -0.328125 1.570312 -0.6875 1.25 -1.15625 C 0.925781 -1.632812 0.765625 -2.21875 0.765625 -2.90625 C 0.765625 -3.582031 0.925781 -4.148438 1.25 -4.609375 C 1.570312 -5.066406 2.023438 -5.410156 2.609375 -5.640625 C 3.191406 -5.878906 3.851562 -6 4.59375 -6 L 7.3125 -6 L 7.3125 -6.5625 C 7.3125 -7.03125 7.164062 -7.410156 6.875 -7.703125 C 6.582031 -8.003906 6.117188 -8.15625 5.484375 -8.15625 C 4.859375 -8.15625 4.390625 -8.007812 4.078125 -7.71875 C 3.773438 -7.4375 3.578125 -7.070312 3.484375 -6.625 L 1.15625 -7.40625 C 1.320312 -7.90625 1.578125 -8.363281 1.921875 -8.78125 C 2.273438 -9.207031 2.75 -9.550781 3.34375 -9.8125 C 3.9375 -10.070312 4.660156 -10.203125 5.515625 -10.203125 C 6.828125 -10.203125 7.863281 -9.875 8.625 -9.21875 C 9.382812 -8.5625 9.765625 -7.613281 9.765625 -6.375 L 9.765625 -2.6875 C 9.765625 -2.28125 9.945312 -2.078125 10.3125 -2.078125 L 11.125 -2.078125 L 11.125 0 L 9.4375 0 C 8.945312 0 8.539062 -0.117188 8.21875 -0.359375 C 7.894531 -0.597656 7.734375 -0.914062 7.734375 -1.3125 L 7.734375 -1.34375 L 7.359375 -1.34375 C 7.304688 -1.175781 7.1875 -0.960938 7 -0.703125 C 6.8125 -0.441406 6.515625 -0.210938 6.109375 -0.015625 C 5.710938 0.179688 5.171875 0.28125 4.484375 0.28125 Z M 4.921875 -1.765625 C 5.628906 -1.765625 6.203125 -1.957031 6.640625 -2.34375 C 7.085938 -2.738281 7.3125 -3.265625 7.3125 -3.921875 L 7.3125 -4.125 L 4.78125 -4.125 C 4.3125 -4.125 3.941406 -4.019531 3.671875 -3.8125 C 3.410156 -3.613281 3.28125 -3.335938 3.28125 -2.984375 C 3.28125 -2.617188 3.421875 -2.320312 3.703125 -2.09375 C 3.984375 -1.875 4.390625 -1.765625 4.921875 -1.765625 Z M 4.921875 -1.765625 "/></g></g></g><g fill="#ffffff" fill-opacity="1"><g transform="translate(117.16908, 127.875019)"><g><path d="M 1.40625 0 L 1.40625 -9.921875 L 3.875 -9.921875 L 3.875 -8.796875 L 4.234375 -8.796875 C 4.378906 -9.203125 4.625 -9.492188 4.96875 -9.671875 C 5.3125 -9.859375 5.707031 -9.953125 6.15625 -9.953125 L 7.359375 -9.953125 L 7.359375 -7.71875 L 6.125 -7.71875 C 5.476562 -7.71875 4.945312 -7.546875 4.53125 -7.203125 C 4.125 -6.867188 3.921875 -6.347656 3.921875 -5.640625 L 3.921875 0 Z M 1.40625 0 "/></g></g></g><g fill="#ffffff" fill-opacity="1"><g transform="translate(125.085954, 127.875019)"><g><path d="M 4.484375 0.28125 C 3.773438 0.28125 3.140625 0.160156 2.578125 -0.078125 C 2.015625 -0.328125 1.570312 -0.6875 1.25 -1.15625 C 0.925781 -1.632812 0.765625 -2.21875 0.765625 -2.90625 C 0.765625 -3.582031 0.925781 -4.148438 1.25 -4.609375 C 1.570312 -5.066406 2.023438 -5.410156 2.609375 -5.640625 C 3.191406 -5.878906 3.851562 -6 4.59375 -6 L 7.3125 -6 L 7.3125 -6.5625 C 7.3125 -7.03125 7.164062 -7.410156 6.875 -7.703125 C 6.582031 -8.003906 6.117188 -8.15625 5.484375 -8.15625 C 4.859375 -8.15625 4.390625 -8.007812 4.078125 -7.71875 C 3.773438 -7.4375 3.578125 -7.070312 3.484375 -6.625 L 1.15625 -7.40625 C 1.320312 -7.90625 1.578125 -8.363281 1.921875 -8.78125 C 2.273438 -9.207031 2.75 -9.550781 3.34375 -9.8125 C 3.9375 -10.070312 4.660156 -10.203125 5.515625 -10.203125 C 6.828125 -10.203125 7.863281 -9.875 8.625 -9.21875 C 9.382812 -8.5625 9.765625 -7.613281 9.765625 -6.375 L 9.765625 -2.6875 C 9.765625 -2.28125 9.945312 -2.078125 10.3125 -2.078125 L 11.125 -2.078125 L 11.125 0 L 9.4375 0 C 8.945312 0 8.539062 -0.117188 8.21875 -0.359375 C 7.894531 -0.597656 7.734375 -0.914062 7.734375 -1.3125 L 7.734375 -1.34375 L 7.359375 -1.34375 C 7.304688 -1.175781 7.1875 -0.960938 7 -0.703125 C 6.8125 -0.441406 6.515625 -0.210938 6.109375 -0.015625 C 5.710938 0.179688 5.171875 0.28125 4.484375 0.28125 Z M 4.921875 -1.765625 C 5.628906 -1.765625 6.203125 -1.957031 6.640625 -2.34375 C 7.085938 -2.738281 7.3125 -3.265625 7.3125 -3.921875 L 7.3125 -4.125 L 4.78125 -4.125 C 4.3125 -4.125 3.941406 -4.019531 3.671875 -3.8125 C 3.410156 -3.613281 3.28125 -3.335938 3.28125 -2.984375 C 3.28125 -2.617188 3.421875 -2.320312 3.703125 -2.09375 C 3.984375 -1.875 4.390625 -1.765625 4.921875 -1.765625 Z M 4.921875 -1.765625 "/></g></g></g><g fill="#ffffff" fill-opacity="1"><g transform="translate(136.641396, 127.875019)"><g/></g></g><g fill="#ffffff" fill-opacity="1"><g transform="translate(141.719391, 127.875019)"><g><path d="M 5.203125 0 C 4.546875 0 4.015625 -0.203125 3.609375 -0.609375 C 3.203125 -1.015625 3 -1.554688 3 -2.234375 L 3 -7.84375 L 0.515625 -7.84375 L 0.515625 -9.921875 L 3 -9.921875 L 3 -13 L 5.515625 -13 L 5.515625 -9.921875 L 8.234375 -9.921875 L 8.234375 -7.84375 L 5.515625 -7.84375 L 5.515625 -2.6875 C 5.515625 -2.28125 5.703125 -2.078125 6.078125 -2.078125 L 8 -2.078125 L 8 0 Z M 5.203125 0 "/></g></g></g><g fill="#ffffff" fill-opacity="1"><g transform="translate(150.8358, 127.875019)"><g><path d="M 4.484375 0.28125 C 3.773438 0.28125 3.140625 0.160156 2.578125 -0.078125 C 2.015625 -0.328125 1.570312 -0.6875 1.25 -1.15625 C 0.925781 -1.632812 0.765625 -2.21875 0.765625 -2.90625 C 0.765625 -3.582031 0.925781 -4.148438 1.25 -4.609375 C 1.570312 -5.066406 2.023438 -5.410156 2.609375 -5.640625 C 3.191406 -5.878906 3.851562 -6 4.59375 -6 L 7.3125 -6 L 7.3125 -6.5625 C 7.3125 -7.03125 7.164062 -7.410156 6.875 -7.703125 C 6.582031 -8.003906 6.117188 -8.15625 5.484375 -8.15625 C 4.859375 -8.15625 4.390625 -8.007812 4.078125 -7.71875 C 3.773438 -7.4375 3.578125 -7.070312 3.484375 -6.625 L 1.15625 -7.40625 C 1.320312 -7.90625 1.578125 -8.363281 1.921875 -8.78125 C 2.273438 -9.207031 2.75 -9.550781 3.34375 -9.8125 C 3.9375 -10.070312 4.660156 -10.203125 5.515625 -10.203125 C 6.828125 -10.203125 7.863281 -9.875 8.625 -9.21875 C 9.382812 -8.5625 9.765625 -7.613281 9.765625 -6.375 L 9.765625 -2.6875 C 9.765625 -2.28125 9.945312 -2.078125 10.3125 -2.078125 L 11.125 -2.078125 L 11.125 0 L 9.4375 0 C 8.945312 0 8.539062 -0.117188 8.21875 -0.359375 C 7.894531 -0.597656 7.734375 -0.914062 7.734375 -1.3125 L 7.734375 -1.34375 L 7.359375 -1.34375 C 7.304688 -1.175781 7.1875 -0.960938 7 -0.703125 C 6.8125 -0.441406 6.515625 -0.210938 6.109375 -0.015625 C 5.710938 0.179688 5.171875 0.28125 4.484375 0.28125 Z M 4.921875 -1.765625 C 5.628906 -1.765625 6.203125 -1.957031 6.640625 -2.34375 C 7.085938 -2.738281 7.3125 -3.265625 7.3125 -3.921875 L 7.3125 -4.125 L 4.78125 -4.125 C 4.3125 -4.125 3.941406 -4.019531 3.671875 -3.8125 C 3.410156 -3.613281 3.28125 -3.335938 3.28125 -2.984375 C 3.28125 -2.617188 3.421875 -2.320312 3.703125 -2.09375 C 3.984375 -1.875 4.390625 -1.765625 4.921875 -1.765625 Z M 4.921875 -1.765625 "/></g></g></g><g fill="#ffffff" fill-opacity="1"><g transform="translate(162.391243, 127.875019)"><g><path d="M 1.40625 0 L 1.40625 -9.921875 L 3.921875 -9.921875 L 3.921875 0 Z M 2.65625 -11.078125 C 2.195312 -11.078125 1.8125 -11.222656 1.5 -11.515625 C 1.1875 -11.804688 1.03125 -12.195312 1.03125 -12.6875 C 1.03125 -13.164062 1.1875 -13.550781 1.5 -13.84375 C 1.8125 -14.132812 2.195312 -14.28125 2.65625 -14.28125 C 3.125 -14.28125 3.507812 -14.132812 3.8125 -13.84375 C 4.125 -13.550781 4.28125 -13.164062 4.28125 -12.6875 C 4.28125 -12.195312 4.125 -11.804688 3.8125 -11.515625 C 3.507812 -11.222656 3.125 -11.078125 2.65625 -11.078125 Z M 2.65625 -11.078125 "/></g></g></g><g fill="#ffffff" fill-opacity="1"><g transform="translate(167.70914, 127.875019)"><g><path d="M 6.125 0.28125 C 5.132812 0.28125 4.242188 0.0820312 3.453125 -0.3125 C 2.671875 -0.71875 2.050781 -1.300781 1.59375 -2.0625 C 1.144531 -2.820312 0.921875 -3.734375 0.921875 -4.796875 L 0.921875 -5.125 C 0.921875 -6.1875 1.144531 -7.097656 1.59375 -7.859375 C 2.050781 -8.617188 2.671875 -9.195312 3.453125 -9.59375 C 4.242188 -10 5.132812 -10.203125 6.125 -10.203125 C 7.101562 -10.203125 7.984375 -10 8.765625 -9.59375 C 9.554688 -9.195312 10.175781 -8.617188 10.625 -7.859375 C 11.082031 -7.097656 11.3125 -6.1875 11.3125 -5.125 L 11.3125 -4.796875 C 11.3125 -3.734375 11.082031 -2.820312 10.625 -2.0625 C 10.175781 -1.300781 9.554688 -0.71875 8.765625 -0.3125 C 7.984375 0.0820312 7.101562 0.28125 6.125 0.28125 Z M 6.125 -1.953125 C 6.894531 -1.953125 7.53125 -2.203125 8.03125 -2.703125 C 8.539062 -3.203125 8.796875 -3.921875 8.796875 -4.859375 L 8.796875 -5.0625 C 8.796875 -5.988281 8.546875 -6.703125 8.046875 -7.203125 C 7.546875 -7.703125 6.90625 -7.953125 6.125 -7.953125 C 5.34375 -7.953125 4.695312 -7.703125 4.1875 -7.203125 C 3.6875 -6.703125 3.4375 -5.988281 3.4375 -5.0625 L 3.4375 -4.859375 C 3.4375 -3.921875 3.6875 -3.203125 4.1875 -2.703125 C 4.695312 -2.203125 5.34375 -1.953125 6.125 -1.953125 Z M 6.125 -1.953125 "/></g></g></g><g fill="#ffffff" fill-opacity="1"><g transform="translate(179.944316, 127.875019)"><g><path d="M 1.40625 0 L 1.40625 -14 L 3.921875 -14 L 3.921875 -8.703125 L 4.28125 -8.703125 C 4.382812 -8.910156 4.550781 -9.117188 4.78125 -9.328125 C 5.007812 -9.546875 5.3125 -9.722656 5.6875 -9.859375 C 6.070312 -10.003906 6.554688 -10.078125 7.140625 -10.078125 C 7.910156 -10.078125 8.585938 -9.898438 9.171875 -9.546875 C 9.753906 -9.191406 10.203125 -8.703125 10.515625 -8.078125 C 10.835938 -7.460938 11 -6.742188 11 -5.921875 L 11 0 L 8.484375 0 L 8.484375 -5.71875 C 8.484375 -6.46875 8.296875 -7.023438 7.921875 -7.390625 C 7.554688 -7.765625 7.035156 -7.953125 6.359375 -7.953125 C 5.585938 -7.953125 4.988281 -7.695312 4.5625 -7.1875 C 4.132812 -6.675781 3.921875 -5.960938 3.921875 -5.046875 L 3.921875 0 Z M 1.40625 0 "/></g></g></g><g fill="#ffffff" fill-opacity="1"><g transform="translate(192.259463, 127.875019)"><g><path d="M 1.40625 0 L 1.40625 -9.921875 L 3.921875 -9.921875 L 3.921875 0 Z M 2.65625 -11.078125 C 2.195312 -11.078125 1.8125 -11.222656 1.5 -11.515625 C 1.1875 -11.804688 1.03125 -12.195312 1.03125 -12.6875 C 1.03125 -13.164062 1.1875 -13.550781 1.5 -13.84375 C 1.8125 -14.132812 2.195312 -14.28125 2.65625 -14.28125 C 3.125 -14.28125 3.507812 -14.132812 3.8125 -13.84375 C 4.125 -13.550781 4.28125 -13.164062 4.28125 -12.6875 C 4.28125 -12.195312 4.125 -11.804688 3.8125 -11.515625 C 3.507812 -11.222656 3.125 -11.078125 2.65625 -11.078125 Z M 2.65625 -11.078125 "/></g></g></g></svg>